<svg width="72" height="72" viewBox="0 0 72 72" fill="none" xmlns="http://www.w3.org/2000/svg">
<rect width="72" height="72" rx="20" fill="url(#paint0_linear_5_13)"/>
<circle cx="36.074" cy="40.9881" r="16.5119" fill="#FCF8ED" stroke="#000827"/>
<circle cx="36.1885" cy="40.9881" r="13.3043" fill="#17354D" stroke="#1E1E1E"/>
<circle cx="36.074" cy="40.9881" r="11.1277" fill="#317796" stroke="#102337"/>
<circle cx="36.1313" cy="40.9308" r="7.06086" fill="#0B2337" stroke="#0E1E31"/>
<circle cx="36.1313" cy="40.9308" r="4.81146" fill="#0F3149"/>
<circle cx="34.8711" cy="38.2959" r="1.44749" fill="#377C9A" stroke="#071B33"/>
<path d="M47.9531 25.1903C47.419 25.1903 46.8928 25.0036 46.4844 24.6301C40.8765 19.5091 31.7655 19.5091 26.1576 24.6301C25.3486 25.3699 24.0291 25.3699 23.2201 24.6301C22.4111 23.8903 22.4111 22.6837 23.2201 21.9439C30.446 15.3361 42.196 15.3361 49.4219 21.9439C50.2309 22.6837 50.2309 23.8903 49.4219 24.6301C49.0135 25.0036 48.4794 25.1903 47.9531 25.1903Z" fill="#7BC7CF" stroke="#7BC7CF" stroke-width="0.00256"/>
<path d="M53.752 20.3713C53.2179 20.3713 52.6917 20.1846 52.2832 19.8111C43.5258 11.81 29.2939 11.81 20.5442 19.8111C19.7352 20.5509 18.4157 20.5509 17.6067 19.8111C16.7978 19.0713 16.7978 17.8647 17.6067 17.1249C22.6335 12.5282 29.3096 10 36.4177 10C43.5258 10 50.2019 12.5282 55.2286 17.1249C56.0376 17.8647 56.0376 19.0713 55.2286 19.8111C54.8123 20.1846 54.2782 20.3713 53.752 20.3713Z" fill="#7BC7CF" stroke="#7BC7CF" stroke-width="0.00256"/>
<defs>
<linearGradient id="paint0_linear_5_13" x1="36" y1="0" x2="36" y2="72" gradientUnits="userSpaceOnUse">
<stop stop-color="#2D6685"/>
<stop offset="1" stop-color="#15344D"/>
</linearGradient>
</defs>
</svg>
