<?xml version="1.0" encoding="UTF-8" standalone="no"?>
<!-- Created with Inkscape (http://www.inkscape.org/) -->

<svg
   width="321.07016mm"
   height="166.47295mm"
   viewBox="0 0 321.07016 166.47295"
   version="1.1"
   id="svg1"
   xml:space="preserve"
   xmlns="http://www.w3.org/2000/svg"
   xmlns:svg="http://www.w3.org/2000/svg"><defs
     id="defs1" /><g
     id="layer1"
     transform="translate(-397.80344,-331.74587)"><g
       id="g3"
       transform="translate(204.60814,-74.026765)"><path
         style="fill:#000000"
         d="m 203.81838,571.8274 -1.42549,-0.38336 -1.61014,-0.856 -1.61015,-0.85599 -1.66733,-1.55788 -1.66734,-1.55789 -1.25015,-2.51827 -1.25016,-2.51828 -0.0712,-71.85925 -0.0711,-71.85926 0.27321,-1.28669 0.27321,-1.28669 0.84585,-1.69958 0.84585,-1.69957 1.26286,-1.41691 1.26287,-1.4169 1.45158,-0.9635 1.45158,-0.96351 1.79389,-0.67762 1.79389,-0.67763 35.35471,0.011 35.35471,0.011 1.68696,0.56766 1.68696,0.56767 1.80682,1.20036 1.80681,1.20035 1.04817,1.32603 1.04816,1.32603 0.69561,1.18696 0.6956,1.18695 0.50378,1.7523 0.50378,1.75229 -0.0155,71.04062 -0.0155,71.04062 -0.40912,1.56595 -0.40912,1.56595 -0.85164,1.60905 -0.85164,1.60905 -1.71979,1.71979 -1.7198,1.7198 -1.60905,0.85164 -1.60905,0.85164 -1.55539,0.40513 -1.55539,0.40513 -34.53868,-0.0174 -34.53868,-0.0174 z m 71.16132,-4.49447 1.43709,-0.41475 1.39132,-0.94195 1.39132,-0.94195 0.93073,-1.2679 0.93072,-1.2679 0.52223,-1.51787 0.52222,-1.51786 v -70.42201 -70.42202 l -0.41918,-1.41152 -0.41918,-1.41153 -0.61103,-0.96795 -0.61104,-0.96794 -1.36383,-1.22621 -1.36384,-1.2262 -1.50855,-0.60953 -1.50856,-0.60954 -33.3375,-0.0778 -33.3375,-0.0778 -1.69033,0.29041 -1.69033,0.29041 -1.29573,0.65659 -1.29573,0.6566 -1.00939,0.91192 -1.00938,0.91191 -0.8517,1.59796 -0.8517,1.59795 -0.23332,2.17721 -0.23331,2.17721 0.0534,69.18854 0.0534,69.18854 0.48366,1.32852 0.48366,1.32852 0.90689,1.24968 0.90689,1.24968 1.25528,0.92685 1.25528,0.92684 1.5875,0.51499 1.5875,0.51499 33.7525,0.0149 33.7525,0.0149 z m -44.48847,-70.73782 -0.7734,-0.7734 v -0.71671 -0.71672 l 0.92484,-0.87223 0.92483,-0.87223 1.85234,-0.92669 1.85235,-0.92669 2.01603,-0.44852 2.01603,-0.44853 1.73251,0.1775 1.73251,0.1775 1.61022,0.53671 1.61022,0.53671 1.66488,1.07738 1.66489,1.07737 0.25334,0.47337 0.25334,0.47337 v 0.76503 0.76502 l -0.59531,0.54488 -0.59531,0.54487 -0.61647,0.18725 -0.61648,0.18725 -1.53032,-0.94457 -1.53032,-0.94457 -1.54682,-0.40289 -1.54681,-0.4029 h -1.50404 -1.50404 l -1.68152,0.52866 -1.68151,0.52866 -1.1643,0.79426 -1.16429,0.79426 h -0.642 -0.64199 z m -8.35186,-7.41644 -0.567,-0.23883 -0.42519,-0.60704 -0.42518,-0.60703 v -0.98665 -0.98664 l 1.89826,-1.59787 1.89826,-1.59786 1.78054,-1.07581 1.78053,-1.07582 1.88554,-0.79222 1.88555,-0.79222 2.30701,-0.49994 2.30702,-0.49993 2.24895,-0.1744 2.24896,-0.1744 2.20922,0.30719 2.20922,0.30719 2.2887,0.65919 2.2887,0.65919 2.11666,1.03359 2.11667,1.03359 1.75859,1.33429 1.75859,1.33428 0.82109,0.76702 0.8211,0.76703 v 1.03497 1.03497 l -0.74208,0.71096 -0.74208,0.71096 h -0.97695 -0.97695 l -0.99295,-0.89231 -0.99294,-0.89231 -1.85209,-1.17813 -1.85208,-1.17812 -1.25398,-0.57545 -1.25399,-0.57544 -2.05331,-0.5808 -2.0533,-0.58081 -3.43959,-0.005 -3.43958,-0.005 -1.85208,0.47532 -1.85209,0.47533 -2.64583,1.27969 -2.64583,1.27969 -1.78721,1.48311 -1.78721,1.4831 -0.72634,0.11867 -0.72633,0.11866 z m -8.75053,-9.21098 -0.58628,-0.0961 -0.67049,-0.79683 -0.67049,-0.79683 v -0.73777 -0.73777 l 0.53279,-0.67733 0.53278,-0.67733 2.04691,-1.70447 2.0469,-1.70448 1.94741,-1.25745 1.94742,-1.25745 2.4195,-1.13064 2.4195,-1.13064 2.24767,-0.6827 2.24766,-0.6827 1.85209,-0.41948 1.85208,-0.41949 4.89819,-0.14992 4.8982,-0.14992 2.37785,0.30878 2.37784,0.30877 2.91062,0.7687 2.91063,0.76871 1.05812,0.4368 1.05813,0.4368 2.38125,1.1964 2.38125,1.19639 2.24896,1.54834 2.24896,1.54834 1.65364,1.48386 1.65365,1.48385 v 0.76017 0.76016 l -0.31609,0.69375 -0.3161,0.69375 -0.7291,0.37704 -0.7291,0.37703 h -0.51832 -0.51832 l -1.94221,-1.62345 -1.94222,-1.62345 -1.93707,-1.30774 -1.93707,-1.30775 -2.2343,-1.02737 -2.2343,-1.02736 -2.1334,-0.67394 -2.1334,-0.67394 -2.1619,-0.3711 -2.16189,-0.37109 -2.24896,-0.1786 -2.24896,-0.17859 -3.28242,0.30495 -3.28242,0.30495 -2.99536,0.75649 -2.99536,0.75649 -2.55935,1.21237 -2.55934,1.21238 -2.14308,1.43279 -2.14308,1.43278 -1.49276,1.33898 -1.49276,1.33897 -0.62391,0.21551 -0.62391,0.21551 z m 142.45883,76.74257 -1.26702,-0.42331 -1.21852,-1.07258 -1.21851,-1.07258 -0.62073,-1.333 -0.62073,-1.33299 -10e-4,-1.19063 -10e-4,-1.19062 0.26503,-0.95411 0.26504,-0.95412 2.60662,-3.01463 2.60661,-3.01464 3.33604,-3.70417 3.33604,-3.70417 0.006,-41.1538 0.006,-41.1538 0.42126,-1.41856 0.42127,-1.41855 0.60164,-0.95307 0.60165,-0.95307 1.13023,-1.0211 1.13024,-1.0211 1.48696,-0.69722 1.48696,-0.69722 61.8961,-0.0678 61.89609,-0.0678 1.66338,0.77838 1.66337,0.77839 1.18224,1.21644 1.18225,1.21644 0.74266,1.51256 0.74266,1.51257 0.13229,41.59633 0.13229,41.59633 3.90133,4.34926 3.90132,4.34926 1.84395,2.13736 1.84395,2.13737 0.46693,0.86496 0.46692,0.86495 -0.0121,1.85209 -0.0121,1.85208 -0.57949,1.11745 -0.57949,1.11745 -0.96674,0.96675 -0.96675,0.96674 -1.21427,0.56164 -1.21428,0.56164 -75.80313,0.0508 -75.80312,0.0508 z m 153.00205,-5.03603 0.79858,-0.7276 0.15827,-0.82769 0.15827,-0.82768 -1.39594,-1.55357 -1.39593,-1.55356 -4.62438,-4.96094 -4.62438,-4.96093 h -65.15443 -65.15444 l -4.98579,5.35781 -4.98579,5.35781 -1.12442,1.25086 -1.12443,1.25086 v 0.68772 0.68772 l 0.7734,0.7734 0.77339,0.7734 h 75.55472 75.55472 z m -24.272,-20.15501 12.63385,-0.0195 -0.006,-39.88594 -0.006,-39.88593 -0.48182,-1.06061 -0.48182,-1.0606 -0.96192,-0.84458 -0.96192,-0.84457 -0.86555,-0.15458 -0.86555,-0.15458 -60.63296,0.0754 -60.63295,0.0754 -1.12369,0.79375 -1.12369,0.79375 -0.55273,1.05833 -0.55273,1.05833 -0.0695,40.00788 -0.0695,40.00788 2.31846,0.0816 2.31845,0.0816 49.74167,-0.0518 49.74167,-0.0518 z m -56.95156,-16.02961 -1.71979,-0.35755 -1.85209,-0.6422 -1.85208,-0.6422 -1.85208,-0.93607 -1.85209,-0.93607 -1.52135,-1.13024 -1.52135,-1.13024 0.003,-0.15399 0.003,-0.154 2.57667,-0.62007 2.57667,-0.62007 3.175,-1.19447 3.175,-1.19447 4.49792,-2.17297 4.49791,-2.17298 2.21805,-1.37916 2.21806,-1.37915 0.0814,0.0814 0.0814,0.0814 -0.62131,2.90398 -0.62132,2.90398 -0.43217,1.85208 -0.43218,1.85209 -1.24959,3.70416 -1.24959,3.70417 -3.3037,0.0451 -3.30371,0.0451 z m 11.75237,-0.82729 0.19015,-0.49277 0.88147,-2.91042 0.88146,-2.91041 0.67875,-3.04271 0.67875,-3.04271 0.4363,-2.64583 0.4363,-2.64584 0.16816,-4.87369 0.16816,-4.87369 3.27299,3.41848 3.27299,3.41849 1.65693,2.11666 1.65693,2.11667 0.82108,1.39445 0.82108,1.39445 0.16237,0.64694 0.16237,0.64693 -1.19542,1.79508 -1.19543,1.79507 -2.33669,2.27032 -2.3367,2.27032 -1.68835,1.13654 -1.68835,1.13654 -2.14811,0.99735 -2.1481,0.99734 -0.89962,0.1896 -0.89962,0.1896 z m -27.60392,-9.27017 -1.1051,-1.54135 -1.17529,-2.38125 -1.1753,-2.38125 -0.66836,-2.35587 -0.66837,-2.35586 -0.22388,-2.67122 -0.22387,-2.67122 0.21352,-1.85208 0.21353,-1.85208 0.0136,-0.4487 0.0136,-0.4487 2.57969,2.6603 2.57968,2.66031 3.14168,2.68318 3.14167,2.68319 2.3996,1.76651 2.39961,1.7665 2.73086,1.64712 2.73087,1.64711 -0.0701,0.0559 -0.0701,0.0559 -3.70417,1.47368 -3.70416,1.47369 -2.77813,0.77878 -2.77812,0.77878 -1.35396,0.18502 -1.35395,0.18502 z m 45.02591,-7.57837 -0.27933,-0.61306 -2.19751,-2.76038 -2.19751,-2.76037 -3.32032,-3.32032 -3.32032,-3.32032 -2.68173,-2.13486 -2.68174,-2.13486 -1.47795,-0.89482 -1.47794,-0.89482 -0.008,-0.16357 -0.008,-0.16358 1.52135,-0.41984 1.52136,-0.41984 2.77812,-0.53238 2.77813,-0.53238 2.11666,-0.25671 2.11667,-0.2567 2.53526,-0.17022 2.53526,-0.17021 0.45752,0.69826 0.45752,0.69826 0.88863,2.30096 0.88863,2.30095 0.47103,2.24766 0.47103,2.24767 0.005,3.43958 0.005,3.43959 -0.34342,1.5875 -0.34343,1.5875 -0.28536,0.99218 -0.28537,0.99219 h -0.18023 -0.18023 z m -37.64844,-5.75582 -1.97696,-1.60639 -2.91874,-2.72525 -2.91873,-2.72524 -1.51304,-1.84939 -1.51303,-1.84938 v -0.48983 -0.48984 l 1.05558,-2.12654 1.05558,-2.12655 1.74444,-2.32076 1.74444,-2.32075 2.02057,-1.70019 2.02057,-1.7002 1.911,-1.09338 1.911,-1.09339 1.91296,-0.6472 1.91296,-0.64721 0.18538,0.073 0.18539,0.073 -0.92185,2.38125 -0.92185,2.38125 -0.99675,3.96875 -0.99674,3.96875 -0.48581,3.175 -0.48581,3.175 -0.007,4.96093 -0.007,4.96094 h -0.01 -0.01 z m 5.43716,-12.51262 0.1795,-1.35912 1.01444,-3.96875 1.01444,-3.96875 1.17655,-3.175 1.17656,-3.175 1.02365,-0.18319 1.02365,-0.18319 1.71979,-0.0142 1.7198,-0.0142 2.38125,0.38759 2.38125,0.3876 1.90508,0.64944 1.90508,0.64944 2.06609,1.0749 2.06608,1.07489 2.1223,1.67819 2.1223,1.67818 0.84452,1.06629 0.84452,1.0663 -2.65142,0.18261 -2.65142,0.18262 -3.22823,0.52465 -3.22824,0.52465 -3.43958,0.89284 -3.43958,0.89283 -2.33485,0.85064 -2.33484,0.85063 -2.7791,1.3931 -2.77909,1.39309 z m -132.49424,34.31614 0.33238,-0.134 -0.18473,-0.30813 -0.18473,-0.30813 0.45888,0.37243 0.45887,0.37243 0.31731,-0.3173 0.3173,-0.31731 -0.35082,-0.21682 -0.35082,-0.21682 0.61762,-0.49976 0.61761,-0.49977 0.30999,-0.66146 0.30999,-0.66146 -0.0234,-0.46302 -0.0234,-0.46302 h -0.22048 -0.22049 v -0.24518 -0.24519 l 0.46302,-0.121 0.46302,-0.121 -0.52916,-0.0428 -0.52917,-0.0428 3.04271,-0.93011 3.04271,-0.93011 2.6727,-1.27172 2.6727,-1.27173 2.23641,-1.4728 2.23642,-1.47279 2.25116,-1.9681 2.25115,-1.96809 1.99744,-2.24504 1.99744,-2.24503 2.46392,-3.27877 2.46393,-3.27877 2.16529,-2.64583 2.1653,-2.64584 2.66283,-2.55351 2.66284,-2.55352 3.00597,-2.00184 3.00597,-2.00184 2.54434,-1.18897 2.54434,-1.18898 2.61401,-0.77656 2.61401,-0.77656 2.711,-0.43101 2.71101,-0.43101 2.85343,-0.16326 2.85344,-0.16326 1.30689,0.20623 1.30689,0.20622 -0.74999,0.21131 -0.75,0.21132 -0.44063,-0.14036 -0.44063,-0.14035 0.39687,0.2835 0.39688,0.2835 0.44075,-0.13701 0.44076,-0.13702 0.19543,0.31623 0.19544,0.31622 -0.32661,-0.20185 -0.3266,-0.20186 -0.39384,0.56228 -0.39383,0.56228 -0.19297,-0.11926 -0.19296,-0.11926 -0.38425,0.24307 -0.38424,0.24307 0.52917,0.008 0.52916,0.008 -0.31417,0.19977 -0.31418,0.19977 -0.28064,0.73814 -0.28064,0.73814 -0.2468,-0.15253 -0.24679,-0.15253 -0.13894,0.22481 -0.13893,0.2248 0.31909,0.0322 0.31909,0.0322 1.45521,0.22261 1.4552,0.22261 -3.83645,0.17292 -3.83646,0.17291 -3.04271,0.65844 -3.04271,0.65843 -2.33412,0.79964 -2.33412,0.79964 -2.44942,1.28949 -2.44941,1.28949 -2.09563,1.53388 -2.09563,1.53388 -2.64785,2.67708 -2.64784,2.67709 -3.41946,4.36562 -3.41945,4.36563 -1.90378,2.24895 -1.90378,2.24896 -2.74454,2.6499 -2.74455,2.6499 -1.98437,1.46933 -1.98438,1.46933 -1.5875,0.94483 -1.5875,0.94482 -1.85208,0.92479 -1.85209,0.92479 -2.3314,0.82249 -2.3314,0.82249 -2.60495,0.53085 -2.60495,0.53086 -0.75219,-0.0209 -0.75219,-0.0209 z"
         id="path2" /><ellipse
         style="fill:#000000;fill-opacity:1;stroke-width:0.0774946"
         id="path3"
         cx="239.28702"
         cy="424.38666"
         rx="3.165"
         ry="3.1647551" /><circle
         style="fill:#000000;fill-opacity:1;stroke-width:0.0774946"
         id="path3-1"
         cx="240.18282"
         cy="503.90106"
         r="3.1647551" /></g></g></svg>
